# xmcd
#
# Track frame offsets:
#	150
#	21037
#	40595
#	53929
#	77651
#	97652
#	115714
#	131609
#	153217
#	172475
#
# Disc length: 2463 seconds
# Revision: 0
# Processed by: cddbd v1.5.2PL0 Copyright (c) Steve Scherf et al.
# Submitted via: dBpowerAMP V12.0
#
DISCID=71099d0a
DTITLE=Jake Lear - Diamonds and Stones
DYEAR=2012
DGENRE=Blues
TTITLE0=Strange Things
TTITLE1=Going Back Home (North Mississippi Bound)
TTITLE2=Wasting Time
TTITLE3=Diamond and Stones
TTITLE4=Down By The River
TTITLE5=Jack O' Diamonds
TTITLE6=Work Work Work
TTITLE7=I See A Train Coming
TTITLE8=Quit You
TTITLE9=Boogie
EXTD=
EXTT0=
EXTT1=
EXTT2=
EXTT3=
EXTT4=
EXTT5=
EXTT6=
EXTT7=
EXTT8=
EXTT9=
PLAYORDER=
